<svg id="intro_logo" xmlns="http://www.w3.org/2000/svg" xmlns:xlink="http://www.w3.org/1999/xlink" viewBox="0 0 226.117 74.003">
  <defs>
    <clipPath id="clip-path">
      <rect id="사각형_218" data-name="사각형 218" width="226.117" height="74.003" transform="translate(0 0)" fill="none"/>
    </clipPath>
    <clipPath id="clip-path-2">
      <rect id="사각형_219" data-name="사각형 219" width="80.992" height="74.003" transform="translate(0.001 0)" fill="none"/>
    </clipPath>
  </defs>
  <g id="그룹_530" data-name="그룹 530">
    <g id="그룹_529" data-name="그룹 529" clip-path="url(#clip-path)">
      <path id="패스_1037" data-name="패스 1037" d="M152.245,44.215q-2.449.073-6.228.072t-8.316.036q-4.536.037-9.5,0t-9.792-.072q-4.824-.036-9.144-.036t-7.56-.072Q95.94,44,95.941,39.751a3.867,3.867,0,0,1,1.368-3.06q1.367-1.188,4.824-1.044,3.672.146,8.676.144h10.62V31.759q-4.32,0-8.136-.036t-6.408-.108a5.774,5.774,0,0,1-3.924-1.213,3.714,3.714,0,0,1-1.188-2.784,4.368,4.368,0,0,1,1.188-2.927,4.978,4.978,0,0,1,3.924-1.356l4.32-.072v-1.3a4.12,4.12,0,0,1,1.584-3.672,6.735,6.735,0,0,1,3.888-1.08,6.838,6.838,0,0,1,3.96,1.044q1.512,1.044,1.512,3.78v1.368h9.576V22.039a4.045,4.045,0,0,1,1.656-3.672,7.086,7.086,0,0,1,3.96-1.08,6.572,6.572,0,0,1,3.816,1.044q1.512,1.044,1.512,3.78v1.368l3.888-.072q3.168,0,4.32,1.188a3.946,3.946,0,0,1,1.152,2.844,4.266,4.266,0,0,1-1.116,2.916q-1.117,1.26-4.356,1.332-2.376.072-5.868.108t-7.524.036v3.96q5.544-.071,10.368-.108t8.064-.18q3.672-.144,4.968,1.152a4.394,4.394,0,0,1,1.3,3.24q0,4.177-5.616,4.32M102.493,11.887a3.766,3.766,0,0,1,1.3-2.808,5.479,5.479,0,0,1,3.888-1.224H113q3.095,0,6.588.036t7.236.036q3.743,0,7.308.036T140.8,8h5.4q2.878,0,4,1.26a4.093,4.093,0,0,1,1.116,2.772,4.214,4.214,0,0,1-1.08,2.736q-1.08,1.3-4.032,1.368-3.456.073-8.6.108t-10.656.036q-5.508,0-10.656-.072t-8.6-.144a5.708,5.708,0,0,1-3.888-1.3,3.836,3.836,0,0,1-1.3-2.88m7.992,46.152a11.14,11.14,0,0,1,1.224-5.184,12.246,12.246,0,0,1,3.456-4.1,17.411,17.411,0,0,1,5.328-2.736,24.079,24.079,0,0,1,13.788,0,17.377,17.377,0,0,1,5.364,2.736,12.281,12.281,0,0,1,3.456,4.1,11.59,11.59,0,0,1,0,10.368,12.281,12.281,0,0,1-3.456,4.1,17.377,17.377,0,0,1-5.364,2.736,24.079,24.079,0,0,1-13.788,0,17.411,17.411,0,0,1-5.328-2.736,12.246,12.246,0,0,1-3.456-4.1,11.14,11.14,0,0,1-1.224-5.184m10.44,0a4.558,4.558,0,0,0,1.692,3.563,8.5,8.5,0,0,0,9.576,0,4.6,4.6,0,0,0,0-7.127,8.5,8.5,0,0,0-9.576,0,4.564,4.564,0,0,0-1.692,3.564" fill="#fff"/>
      <path id="패스_1038" data-name="패스 1038" d="M172.188,39.247a16.569,16.569,0,0,1-3.96-.5,6.12,6.12,0,0,1-2.376-1.188,4.1,4.1,0,0,1-1.224-1.943,11.542,11.542,0,0,1-.432-2.845q-.146-2.23-.252-4.32T163.8,24.2q-.036-2.16.036-4.5t.288-4.932a5.143,5.143,0,0,1,1.512-3.528,6.863,6.863,0,0,1,4.248-1.3q1.15-.072,3.024-.145t4.176-.107q2.3-.038,4.752-.073t4.752-.036q2.3,0,4.212.036t3.06.037a6.387,6.387,0,0,1,4.068,1.259,4.091,4.091,0,0,1,1.188,3.132,7.739,7.739,0,0,1-.252,2.017,3.485,3.485,0,0,1-.9,1.584,4.358,4.358,0,0,1-1.728,1.008,7.739,7.739,0,0,1-2.736.288q-1.656-.072-3.888-.109T185,18.8q-2.376,0-4.644.072t-3.852.144a1.863,1.863,0,0,0-1.188.36,1.971,1.971,0,0,0-.324,1.08q-.072,1.08-.072,1.8V23.7c0,.48.011,1,.036,1.547s.06,1.26.108,2.124a2.97,2.97,0,0,0,.5,1.909,3.734,3.734,0,0,0,2.088.467q.935.072,2.844.108t4.284-.035q2.376-.072,4.932-.181t4.932-.324q3.456-.286,4.968.648a3.882,3.882,0,0,1,1.656,3.313,4.658,4.658,0,0,1-1.332,3.851,7.283,7.283,0,0,1-4.428,1.693q-2.09.214-5.112.323t-6.3.181q-3.276.071-6.408.071t-5.508-.144m8.064,16.416a13.84,13.84,0,0,1,1.188-5.832,12.508,12.508,0,0,1,3.312-4.391A14.471,14.471,0,0,1,189.9,42.7a22.609,22.609,0,0,1,6.7-.936,19.857,19.857,0,0,1,6.228.936,13.926,13.926,0,0,1,4.9,2.737,12.616,12.616,0,0,1,3.2,4.355,15.2,15.2,0,0,1,.108,11.34,12.425,12.425,0,0,1-3.06,4.393,14.769,14.769,0,0,1-4.86,2.952,18.3,18.3,0,0,1-6.516,1.079,19.5,19.5,0,0,1-6.66-1.079,16.186,16.186,0,0,1-5.148-2.952,13.239,13.239,0,0,1-3.348-4.393,12.666,12.666,0,0,1-1.188-5.472m10.656-.144a4.352,4.352,0,0,0,1.512,3.421,5.771,5.771,0,0,0,3.96,1.332,6.02,6.02,0,0,0,4.068-1.332A4.308,4.308,0,0,0,202,55.519a4.382,4.382,0,0,0-1.512-3.564,7.259,7.259,0,0,0-8.064-.072,4.34,4.34,0,0,0-1.512,3.636M205.38,15.343q-.361-4.032,1.008-5.76a5.065,5.065,0,0,1,3.888-1.872,6.92,6.92,0,0,1,2.376.252,3.9,3.9,0,0,1,1.872,1.26,7.311,7.311,0,0,1,1.3,2.52,15.342,15.342,0,0,1,.576,4.1l.144,4.392a15.376,15.376,0,0,0,3.168-.036,17.745,17.745,0,0,1,2.952-.108,3.21,3.21,0,0,1,2.556,1.261,4.806,4.806,0,0,1,.9,2.987,6.735,6.735,0,0,1-.792,3.168,3.505,3.505,0,0,1-2.52,1.872,15.593,15.593,0,0,1-3.06.288q-1.62,0-3.276-.143,0,1.51-.036,3.6t-.108,3.168a7.386,7.386,0,0,1-1.584,4.752,4.993,4.993,0,0,1-3.888,1.584,4.631,4.631,0,0,1-3.816-1.691q-1.368-1.692-1.3-5.365,0-1.728.036-4.32t0-5.435q-.036-2.844-.144-5.617t-.252-4.86" fill="#fff"/>
    </g>
  </g>
  <g id="그룹_532" data-name="그룹 532">
    <g id="그룹_531" data-name="그룹 531" clip-path="url(#clip-path-2)">
      <path id="패스_1039" data-name="패스 1039" d="M47.942,32.8c-3.5-8.619-9.582-16.55-18.056-20.384S10.421,9.675,4.066,16.467C.69,20.074-1.159,25.547.8,30.08c2.253,5.207,8.314,7.321,13.43,9.773A52.716,52.716,0,0,1,38.54,64.326c1.522,3.141,2.91,12.039,8.264,9.084C51.214,70.976,51.523,60,51.736,55.6a53.91,53.91,0,0,0-3.8-22.8" fill="#fff"/>
      <path id="패스_1040" data-name="패스 1040" d="M48.115,19.209c-2.64-4-5.935-8.439-4.734-13.075C44.45,2.02,49.13-.513,53.337.088s7.736,3.788,9.6,7.606,2.281,8.192,2.138,12.44c-.109,3.262-2.047,22.213-7.109,20.1-2.551-1.062-3.12-7.385-4.024-9.722A59.4,59.4,0,0,0,48.111,19.2" fill="#fff"/>
      <path id="패스_1041" data-name="패스 1041" d="M67.011,43.482a32.519,32.519,0,0,1,.75-6.034,6.763,6.763,0,0,1,3.673-4.6,6.086,6.086,0,0,1,6.354,1.689,11.841,11.841,0,0,1,2.85,6.247,23.378,23.378,0,0,1-5.631,19.62c-2.329,2.556-14.568,11.623-15.674,4.286-.49-3.245,2.922-6.437,4.25-9.128a34.492,34.492,0,0,0,3.43-12.087" fill="#fff"/>
    </g>
  </g>
</svg>
