<svg xmlns="http://www.w3.org/2000/svg" xmlns:xlink="http://www.w3.org/1999/xlink" viewBox="0 0 57.084 18.393">
  <defs>
    <clipPath id="clip-path">
      <rect id="사각형_220" data-name="사각형 220" width="57.084" height="18.393" transform="translate(0 0)" fill="none"/>
    </clipPath>
    <clipPath id="clip-path-2">
      <rect id="사각형_221" data-name="사각형 221" width="20.128" height="18.391" transform="translate(0 0.001)" fill="none"/>
    </clipPath>
  </defs>
  <g id="logo" transform="translate(0 0)">
    <g id="그룹_535" data-name="그룹 535">
      <g id="그룹_534" data-name="그룹 534" clip-path="url(#clip-path)">
        <path id="패스_1042" data-name="패스 1042" d="M38.616,11.525c-.408.013-.927.018-1.557.018s-1.323,0-2.079.009-1.548.006-2.376,0l-2.448-.017q-1.206-.01-2.286-.01t-1.89-.018q-1.44-.036-1.44-1.1a.967.967,0,0,1,.342-.766,1.749,1.749,0,0,1,1.206-.261q.918.037,2.169.036h2.655V8.412q-1.08,0-2.034-.01t-1.6-.026a1.446,1.446,0,0,1-.981-.3.929.929,0,0,1-.3-.7,1.1,1.1,0,0,1,.3-.732,1.245,1.245,0,0,1,.981-.339l1.08-.017V5.963a1.03,1.03,0,0,1,.4-.918,1.683,1.683,0,0,1,.972-.27,1.709,1.709,0,0,1,.99.262,1.066,1.066,0,0,1,.378.944v.342h2.394V5.981a1.013,1.013,0,0,1,.414-.918,1.772,1.772,0,0,1,.99-.27,1.641,1.641,0,0,1,.954.261A1.07,1.07,0,0,1,36.222,6v.341l.972-.018a1.5,1.5,0,0,1,1.08.3.982.982,0,0,1,.288.711,1.066,1.066,0,0,1-.279.728,1.484,1.484,0,0,1-1.089.333q-.594.02-1.467.027t-1.881.009v.99q1.386-.016,2.592-.027t2.016-.045a1.682,1.682,0,0,1,1.242.288,1.1,1.1,0,0,1,.324.81q0,1.044-1.4,1.08M26.178,3.443a.943.943,0,0,1,.324-.7,1.373,1.373,0,0,1,.972-.306h1.332c.516,0,1.064,0,1.647.009s1.185.01,1.809.01,1.233,0,1.827.008,1.149.009,1.665.009H37.1a1.293,1.293,0,0,1,1,.316,1.02,1.02,0,0,1,.279.692,1.058,1.058,0,0,1-.27.685,1.311,1.311,0,0,1-1.008.341q-.864.018-2.151.027t-2.664.01q-1.377,0-2.664-.019t-2.151-.036a1.429,1.429,0,0,1-.972-.323.961.961,0,0,1-.324-.721m2,11.538a2.791,2.791,0,0,1,.306-1.3,3.061,3.061,0,0,1,.864-1.025,4.36,4.36,0,0,1,1.332-.685,6.02,6.02,0,0,1,3.447,0,4.343,4.343,0,0,1,1.341.685,3.061,3.061,0,0,1,.864,1.025,2.9,2.9,0,0,1,0,2.592,3.064,3.064,0,0,1-.864,1.026,4.341,4.341,0,0,1-1.341.684,6.02,6.02,0,0,1-3.447,0,4.358,4.358,0,0,1-1.332-.684,3.064,3.064,0,0,1-.864-1.026,2.788,2.788,0,0,1-.306-1.3m2.61,0a1.142,1.142,0,0,0,.423.892,2.131,2.131,0,0,0,2.394,0,1.151,1.151,0,0,0,0-1.783,2.126,2.126,0,0,0-2.394,0,1.142,1.142,0,0,0-.423.891"/>
        <path id="패스_1043" data-name="패스 1043" d="M43.6,10.283a4.155,4.155,0,0,1-.99-.126,1.53,1.53,0,0,1-.594-.3,1.025,1.025,0,0,1-.306-.486,2.909,2.909,0,0,1-.108-.711q-.036-.558-.063-1.08t-.036-1.062q-.009-.54.009-1.125t.072-1.233a1.285,1.285,0,0,1,.378-.882,1.715,1.715,0,0,1,1.062-.324c.192-.011.444-.024.756-.036s.66-.021,1.044-.027l1.188-.018c.408-.006.8-.008,1.188-.008s.735,0,1.053.008.573.009.765.009a1.6,1.6,0,0,1,1.017.315,1.022,1.022,0,0,1,.3.783,1.933,1.933,0,0,1-.063.5.868.868,0,0,1-.225.4,1.072,1.072,0,0,1-.432.252,1.906,1.906,0,0,1-.684.072c-.276-.011-.6-.021-.972-.027s-.756-.009-1.152-.009-.783.006-1.161.018-.7.024-.963.036a.463.463,0,0,0-.3.09.5.5,0,0,0-.081.27c-.012.18-.018.33-.018.451v.359q0,.18.009.387t.027.531a.743.743,0,0,0,.126.477.934.934,0,0,0,.522.117q.234.018.711.027t1.071-.009q.594-.018,1.233-.045T49.218,7.8a2.123,2.123,0,0,1,1.242.162.971.971,0,0,1,.414.828,1.163,1.163,0,0,1-.333.963,1.821,1.821,0,0,1-1.107.423q-.522.054-1.278.081t-1.575.045q-.819.018-1.6.018T43.6,10.283m2.016,4.1a3.46,3.46,0,0,1,.3-1.458,3.128,3.128,0,0,1,.828-1.1,3.633,3.633,0,0,1,1.287-.684,5.677,5.677,0,0,1,1.674-.234,4.985,4.985,0,0,1,1.557.234,3.5,3.5,0,0,1,1.224.684,3.162,3.162,0,0,1,.8,1.089,3.8,3.8,0,0,1,.027,2.835,3.112,3.112,0,0,1-.765,1.1,3.684,3.684,0,0,1-1.215.738,4.568,4.568,0,0,1-1.629.27,4.871,4.871,0,0,1-1.665-.27,4.037,4.037,0,0,1-1.287-.738,3.316,3.316,0,0,1-.837-1.1,3.167,3.167,0,0,1-.3-1.368m2.664-.036a1.086,1.086,0,0,0,.378.855,1.443,1.443,0,0,0,.99.333,1.5,1.5,0,0,0,1.017-.333,1.075,1.075,0,0,0,.387-.855,1.1,1.1,0,0,0-.378-.891,1.814,1.814,0,0,0-2.016-.018,1.086,1.086,0,0,0-.378.909M51.9,4.307a2.043,2.043,0,0,1,.252-1.439,1.264,1.264,0,0,1,.972-.469,1.724,1.724,0,0,1,.594.063.973.973,0,0,1,.468.315,1.823,1.823,0,0,1,.324.63,3.824,3.824,0,0,1,.144,1.026l.036,1.1a3.862,3.862,0,0,0,.792-.009,4.492,4.492,0,0,1,.738-.027.8.8,0,0,1,.639.315,1.2,1.2,0,0,1,.225.747,1.684,1.684,0,0,1-.2.792.877.877,0,0,1-.63.468,3.822,3.822,0,0,1-.765.072q-.405,0-.819-.036c0,.252,0,.553-.009.9s-.015.612-.027.792a1.844,1.844,0,0,1-.4,1.188,1.249,1.249,0,0,1-.972.4,1.155,1.155,0,0,1-.954-.423,2.06,2.06,0,0,1-.324-1.341c0-.287,0-.648.009-1.079s.006-.886,0-1.36-.018-.942-.036-1.4-.039-.866-.063-1.215"/>
      </g>
    </g>
    <g id="그룹_537" data-name="그룹 537">
      <g id="그룹_536" data-name="그룹 536" clip-path="url(#clip-path-2)">
        <path id="패스_1044" data-name="패스 1044" d="M11.914,8.154A9.226,9.226,0,0,0,7.427,3.088,5.731,5.731,0,0,0,1.01,4.094,3.255,3.255,0,0,0,.2,7.478C.76,8.772,2.266,9.3,3.538,9.907a13.1,13.1,0,0,1,6.041,6.082c.378.781.723,2.992,2.054,2.257,1.1-.6,1.173-3.333,1.226-4.426a13.385,13.385,0,0,0-.944-5.666" fill="#005a89"/>
        <path id="패스_1045" data-name="패스 1045" d="M11.958,4.776c-.656-.993-1.475-2.1-1.176-3.249a2.249,2.249,0,0,1,2.474-1.5,3.312,3.312,0,0,1,2.387,1.89A6.521,6.521,0,0,1,16.174,5c-.027.811-.509,5.52-1.767,5-.634-.264-.775-1.835-1-2.416a14.765,14.765,0,0,0-1.449-2.81" fill="#007dab"/>
        <path id="패스_1046" data-name="패스 1046" d="M16.653,10.808a8.054,8.054,0,0,1,.186-1.5,1.682,1.682,0,0,1,.912-1.141,1.512,1.512,0,0,1,1.579.42,2.946,2.946,0,0,1,.708,1.552,5.81,5.81,0,0,1-1.4,4.876c-.579.635-3.62,2.888-3.9,1.065-.122-.807.726-1.6,1.056-2.268a8.566,8.566,0,0,0,.853-3" fill="#02b8d0"/>
      </g>
    </g>
  </g>
</svg>
