<svg xmlns="http://www.w3.org/2000/svg" xmlns:xlink="http://www.w3.org/1999/xlink" viewBox="0 0 78.226 13.35">
  <defs>
    <clipPath id="clip-path">
      <rect id="사각형_220" data-name="사각형 220" width="78.226" height="13.35" transform="translate(0 0)" fill="none"/>
    </clipPath>
  </defs>
  <g id="menuname_community" transform="translate(0 0)">
    <g id="그룹_534" data-name="그룹 534" clip-path="url(#clip-path)">
      <path id="패스_1042" data-name="패스 1042" d="M2.678,8.229c0,1.1.676,1.364,1.274,1.364a2.223,2.223,0,0,0,1.04-.208,2.207,2.207,0,0,1,.637-.26.936.936,0,0,1,.988.43,1.252,1.252,0,0,1-.572,1.69,4.053,4.053,0,0,1-2.093.572C2.067,11.817,0,11.01,0,8.215V6.46c0-2.729,2.067-3.6,3.861-3.6a3.855,3.855,0,0,1,2.028.507A1.23,1.23,0,0,1,6.487,5a.964.964,0,0,1-1.053.468,1.955,1.955,0,0,1-.624-.221,1.8,1.8,0,0,0-.858-.168A1.193,1.193,0,0,0,2.678,6.448Z"/>
      <path id="패스_1043" data-name="패스 1043" d="M7.683,6.461c0-2.8,2-3.6,3.77-3.6,1.729,0,3.77.8,3.77,3.6V8.216c0,2.8-2.041,3.6-3.77,3.6s-3.77-.807-3.77-3.6Zm4.927-.117a1.164,1.164,0,1,0-2.314,0V8.333a1.164,1.164,0,1,0,2.314,0Z"/>
      <path id="패스_1044" data-name="패스 1044" d="M16.458,11.609V4.16a1.242,1.242,0,0,1,1.313-1.3,1.267,1.267,0,0,1,1.195.715,2.6,2.6,0,0,1,1.82-.715,2.659,2.659,0,0,1,2.107.909,3.079,3.079,0,0,1,2.34-.909c1.652,0,3.094.845,3.094,3.562v5.187H25.649V6.265c0-.884-.559-1.182-.987-1.182a1.036,1.036,0,0,0-1,1.182v5.344H21.085V6.265c0-.884-.559-1.182-.988-1.182a1.012,1.012,0,0,0-1,1.118v5.408Z"/>
      <path id="패스_1045" data-name="패스 1045" d="M29.691,11.609V4.16A1.243,1.243,0,0,1,31,2.86a1.268,1.268,0,0,1,1.2.715,2.606,2.606,0,0,1,1.821-.715,2.659,2.659,0,0,1,2.106.909,3.076,3.076,0,0,1,2.339-.909c1.652,0,3.1.845,3.1,3.562v5.187H38.882V6.265c0-.884-.559-1.182-.987-1.182a1.036,1.036,0,0,0-1,1.182v5.344H34.319V6.265c0-.884-.559-1.182-.988-1.182a1.013,1.013,0,0,0-1,1.118v5.408Z"/>
      <path id="패스_1046" data-name="패스 1046" d="M42.86,8.255V4.16a1.34,1.34,0,0,1,2.678,0V8.411a1.047,1.047,0,0,0,1.027,1.183A1.032,1.032,0,0,0,47.6,8.477V4.148a1.32,1.32,0,0,1,2.639,0v7.461H48.177l-.143-.858a2.672,2.672,0,0,1-2.21,1.067c-1.651,0-2.964-.82-2.964-3.563"/>
      <path id="패스_1047" data-name="패스 1047" d="M51.674,11.609V4.16a1.243,1.243,0,0,1,1.313-1.3,1.3,1.3,0,0,1,1.209.715,2.82,2.82,0,0,1,1.9-.715c1.651,0,2.964.818,2.964,3.562v5.187H56.381V6.265a1.043,1.043,0,1,0-2.068,0v5.344Z"/>
      <path id="패스_1048" data-name="패스 1048" d="M61.762,0c.728,0,1.352.338,1.352,1.2s-.624,1.2-1.352,1.2S60.41,2.054,60.41,1.2,61.034,0,61.762,0M60.423,4.251a1.34,1.34,0,0,1,2.678,0v7.358H60.423Z"/>
      <path id="패스_1049" data-name="패스 1049" d="M65.454,5.486h-.429A1.024,1.024,0,0,1,63.881,4.42a1.041,1.041,0,0,1,1.144-1.092h.429V1.755a1.287,1.287,0,1,1,2.574,0V3.328h.767A1.041,1.041,0,0,1,69.939,4.42a1.024,1.024,0,0,1-1.144,1.066h-.767V9.1c0,.39.195.481.416.493.195.014.312-.051.572-.051a.891.891,0,0,1,.884.715,1.148,1.148,0,0,1-.468,1.235,2.5,2.5,0,0,1-1.248.325c-1.729,0-2.73-.7-2.73-2.665Z"/>
      <path id="패스_1050" data-name="패스 1050" d="M78.1,4.719l-2.73,6.254A3.486,3.486,0,0,1,71.395,13.3a1.153,1.153,0,0,1-1.053-1.287,1.032,1.032,0,0,1,1.287-.924,1.181,1.181,0,0,0,1.287-.455v-.013l-2.652-5.9a1.262,1.262,0,0,1,.728-1.742,1.311,1.311,0,0,1,1.781.741l1.495,4.043,1.378-4.043A1.28,1.28,0,0,1,77.4,2.977a1.256,1.256,0,0,1,.7,1.742"/>
    </g>
  </g>
</svg>
