<svg xmlns="http://www.w3.org/2000/svg" width="25" height="25" fill="#111220" viewBox="0 0 25 25" style="transform:rotate({undefined}deg)"><path fill-rule="evenodd" d="M19.523 18.897A9.466 9.466 0 0 0 22 12.5a9.5 9.5 0 1 0-16.284 6.65 7.752 7.752 0 0 1 3.647-3.634 5.02 5.02 0 1 1 6.644 0 7.764 7.764 0 0 1 3.516 3.381Zm-1.559 1.375a5.73 5.73 0 0 0-5.129-3.502 4.955 4.955 0 0 1-.3 0 5.729 5.729 0 0 0-5.21 3.698A9.455 9.455 0 0 0 12.5 22c2.034 0 3.919-.64 5.464-1.728ZM12.82 14.77a3.02 3.02 0 1 0-.27 0 7.598 7.598 0 0 1 .27 0ZM24 12.5C24 18.851 18.851 24 12.5 24S1 18.851 1 12.5 6.149 1 12.5 1 24 6.149 24 12.5Z" clip-rule="evenodd"></path></svg>