<svg id="ic_btn_overflow_modify" xmlns="http://www.w3.org/2000/svg" xmlns:xlink="http://www.w3.org/1999/xlink" width="16" height="17" viewBox="0 0 16 17">
  <defs>
    <clipPath id="clip-path">
      <rect id="사각형_2" data-name="사각형 2" width="16" height="17" fill="none"/>
    </clipPath>
  </defs>
  <g id="그룹_3" data-name="그룹 3" clip-path="url(#clip-path)">
    <path id="패스_1" data-name="패스 1" d="M11.853,212.439a1.467,1.467,0,0,1-1.451,1.48H2.457a1.467,1.467,0,0,1-1.451-1.48v-8.105a1.467,1.467,0,0,1,1.451-1.48H6.769l.925-1.026H2.457A2.485,2.485,0,0,0,0,204.334v8.105a2.485,2.485,0,0,0,2.457,2.506H10.4a2.485,2.485,0,0,0,2.457-2.506v-6.176l-1.006,1.115Z" transform="translate(0 -197.945)"/>
    <path id="패스_2" data-name="패스 2" d="M318.947,2.707a1.339,1.339,0,0,0-.422-.928L317,.352c-.023-.022-.048-.043-.072-.063l-.039-.031a1.3,1.3,0,0,0-.168-.107L316.67.124l-.021-.01L316.607.1l-.021-.008-.028-.011a1.321,1.321,0,0,0-.144-.043l-.039-.008-.018,0-.021,0-.022,0-.018,0-.023,0-.016,0-.024,0h-.015l-.025,0h-.009l-.054,0h-.013q-.048,0-.1,0h-.009l-.038,0-.015,0-.031,0-.018,0-.028,0-.019,0-.027.006-.019,0-.028.007-.017,0-.045.013a1.263,1.263,0,0,0-.126.047l-.061.029A1.332,1.332,0,0,0,315.42.2l-.064.044-.021.016-.054.044-.027.023c-.018.016-.035.032-.051.049L315.178.4l-.025.026L313.74,2l-1.7,1.885-.925,1.026-1.922,2.131a.484.484,0,0,0-.122.279l-.3,3.217a.485.485,0,0,0,.151.4.467.467,0,0,0,.148.093.463.463,0,0,0,.256.024l3-.571a.468.468,0,0,0,.26-.147l2.21-2.451,1.006-1.115,2.8-3.1a1.344,1.344,0,0,0,.345-.961M315.655,5.52l-.854.947-2.8,3.1-2.238.426.225-2.423,2.4-2.661.925-1.026.8-.883,2.066,1.938Zm2.256-2.5-1.095,1.214L314.75,2.294l1.095-1.214.014-.015a.365.365,0,0,1,.259-.107.36.36,0,0,1,.1.014l.032.011.032.014a.364.364,0,0,1,.087.061l1.52,1.427a.383.383,0,0,1,.022.534" transform="translate(-302.948)"/>
  </g>
</svg>
