<svg id="ic_btn_overflow_delete" xmlns="http://www.w3.org/2000/svg" xmlns:xlink="http://www.w3.org/1999/xlink" width="15" height="16" viewBox="0 0 15 16">
  <defs>
    <clipPath id="clip-path">
      <rect id="사각형_3" data-name="사각형 3" width="15" height="16" fill="none"/>
    </clipPath>
  </defs>
  <g id="그룹_5" data-name="그룹 5" clip-path="url(#clip-path)">
    <path id="패스_3" data-name="패스 3" d="M14.469,2.148H11.5V1.656A1.724,1.724,0,0,0,9.719,0H5.281A1.724,1.724,0,0,0,3.5,1.656v.492H.531A.513.513,0,0,0,0,2.642a.513.513,0,0,0,.531.494h.578V13.553A2.546,2.546,0,0,0,3.738,16h7.523a2.546,2.546,0,0,0,2.629-2.447V3.136h.578A.513.513,0,0,0,15,2.642a.513.513,0,0,0-.531-.494M12.83,13.553a1.518,1.518,0,0,1-1.568,1.459H3.738A1.518,1.518,0,0,1,2.17,13.553V3.136H12.83ZM4.563,1.656A.7.7,0,0,1,5.281.988H9.719a.7.7,0,0,1,.718.668v.492H4.563Z"/>
    <path id="패스_4" data-name="패스 4" d="M454.658,322.088a.513.513,0,0,0-.531.494v5.5a.532.532,0,0,0,1.062,0v-5.5a.514.514,0,0,0-.531-.494" transform="translate(-445.292 -316.257)"/>
    <path id="패스_5" data-name="패스 5" d="M262.844,322.088a.513.513,0,0,0-.531.494v5.5a.532.532,0,0,0,1.062,0v-5.5a.513.513,0,0,0-.531-.494" transform="translate(-257.21 -316.257)"/>
  </g>
</svg>
