<svg xmlns="http://www.w3.org/2000/svg" width="18" height="18" fill="#A6A9B8" viewBox="0 0 25 25"><path fill-rule="evenodd" d="m20.459 15.582-.216.592.163.609.873 3.275-2.799-.43-.778-.12-.65.442A8.95 8.95 0 0 1 12 21.5a9 9 0 1 1 9-9 8.98 8.98 0 0 1-.541 3.082ZM12 23.5c2.29 0 4.415-.7 6.176-1.896l4.311.663a1 1 0 0 0 1.119-1.246l-1.268-4.754c.428-1.175.662-2.444.662-3.767 0-6.075-4.925-11-11-11S1 6.425 1 12.5s4.925 11 11 11Zm.25-9.68c.682 0 1.236-.542 1.236-1.21 0-.668-.554-1.21-1.236-1.21-.682 0-1.236.542-1.236 1.21 0 .668.554 1.21 1.236 1.21Zm-4.514 0c.682 0 1.236-.542 1.236-1.21 0-.668-.554-1.21-1.236-1.21-.683 0-1.236.542-1.236 1.21 0 .668.553 1.21 1.236 1.21ZM18 12.61c0 .668-.553 1.21-1.236 1.21a1.223 1.223 0 0 1-1.236-1.21c0-.668.554-1.21 1.236-1.21.683 0 1.236.542 1.236 1.21Z" clip-rule="evenodd"></path></svg>