<svg id="ic_footer_community" xmlns="http://www.w3.org/2000/svg" xmlns:xlink="http://www.w3.org/1999/xlink" width="19" height="19" viewBox="0 0 19 19">
  <defs>
    <clipPath id="clip-path">
      <rect id="사각형_201" data-name="사각형 201" width="19" height="19" fill="#10121f"/>
    </clipPath>
  </defs>
  <g id="그룹_491" data-name="그룹 491" clip-path="url(#clip-path)">
    <path id="패스_957" data-name="패스 957" d="M3.155,0A3.169,3.169,0,0,0,0,3.169v14.1A1.752,1.752,0,0,0,1.123,18.9a1.758,1.758,0,0,0,1.915-.5s.006-.008.012-.012l2.07-2.545H15.829A3.192,3.192,0,0,0,19,12.655V3.169A3.182,3.182,0,0,0,15.829,0ZM4.724,6.356a1.559,1.559,0,0,1,1.6,1.556,1.584,1.584,0,1,1-3.168,0A1.576,1.576,0,0,1,4.724,6.356m6.361,1.556a1.584,1.584,0,1,1-3.168,0,1.584,1.584,0,0,1,3.168,0M14.23,6.356a1.559,1.559,0,0,1,1.6,1.556,1.584,1.584,0,1,1-3.168,0A1.576,1.576,0,0,1,14.23,6.356" transform="translate(0 0.001)" fill="#10121f"/>
  </g>
</svg>
