<svg id="ic_footer_home" xmlns="http://www.w3.org/2000/svg" xmlns:xlink="http://www.w3.org/1999/xlink" width="18" height="18" viewBox="0 0 18 18">
  <defs>
    <clipPath id="clip-path">
      <rect id="사각형_200" data-name="사각형 200" width="18" height="18" fill="#10121f"/>
    </clipPath>
  </defs>
  <g id="그룹_489" data-name="그룹 489" clip-path="url(#clip-path)">
    <path id="패스_956" data-name="패스 956" d="M9,0A3.836,3.836,0,0,0,6.742.732L2.126,4.086A5.156,5.156,0,0,0,0,8.259V15a3.014,3.014,0,0,0,3,3H15a3.012,3.012,0,0,0,3-3V8.259a5.168,5.168,0,0,0-2.138-4.173L11.258.732A3.838,3.838,0,0,0,9,0M7.495,10.494h3A2.256,2.256,0,0,1,12.74,12.74v3.755H5.249V12.74a2.256,2.256,0,0,1,2.246-2.246" transform="translate(0)" fill="#10121f"/>
  </g>
</svg>
