<svg id="ic_menu_cmt_daily" xmlns="http://www.w3.org/2000/svg" xmlns:xlink="http://www.w3.org/1999/xlink" viewBox="0 0 30.605 20.244">
  <defs>
    <clipPath id="clip-path">
      <rect id="사각형_211" data-name="사각형 211" width="30.605" height="20.244" fill="none"/>
    </clipPath>
  </defs>
  <g id="그룹_504" data-name="그룹 504" clip-path="url(#clip-path)">
    <path id="패스_988" data-name="패스 988" d="M159.051,53.9l1.131-4.24a.894.894,0,0,0-.864-1.124h-3.656a5.365,5.365,0,1,0,0,10.729h3.656a.894.894,0,0,0,.864-1.124Z" transform="translate(-129.607 -41.856)" fill="#ffd357"/>
    <path id="패스_989" data-name="패스 989" d="M78.278.35A.894.894,0,0,0,77.57,0H72.09A7.642,7.642,0,0,0,64.451,7.63a.894.894,0,0,0,.894.894H75.783a.894.894,0,0,0,.864-.665l1.787-6.735A.894.894,0,0,0,78.278.35" transform="translate(-55.586 -0.001)" fill="#f7a248"/>
    <path id="패스_990" data-name="패스 990" d="M160.182,49.657a.894.894,0,0,0-.864-1.124h-3.656a5.38,5.38,0,0,0-5.384,5.364h8.773Z" transform="translate(-129.607 -41.857)" fill="#ff8268"/>
    <path id="패스_991" data-name="패스 991" d="M73.482,0H72.089A7.642,7.642,0,0,0,64.45,7.629a.894.894,0,0,0,.894.894h8.138Z" transform="translate(-55.585)" fill="#ffd357"/>
    <path id="패스_992" data-name="패스 992" d="M24.287,35.821a13.271,13.271,0,0,0-24.209,0,.894.894,0,0,0,0,.733,13.271,13.271,0,0,0,24.209,0,.893.893,0,0,0,0-.733" transform="translate(0 -24.141)" fill="#50aee8"/>
    <path id="패스_993" data-name="패스 993" d="M17.9,29.289A13.26,13.26,0,0,0,.079,35.821a.9.9,0,0,0,0,.733A13.26,13.26,0,0,0,17.9,43.087Z" transform="translate(0 -24.141)" fill="#64e4f9"/>
    <path id="패스_994" data-name="패스 994" d="M4.92,81.926a.894.894,0,0,0-.894-.894H.335Q.2,81.3.079,81.566a.894.894,0,0,0,0,.733q.119.264.248.52h3.7a.894.894,0,0,0,.894-.894" transform="translate(-0.001 -69.886)" fill="#50aee8"/>
    <path id="패스_995" data-name="패스 995" d="M38.1,9.313a4.805,4.805,0,1,0,4.805,4.805A4.811,4.811,0,0,0,38.1,9.313" transform="translate(-28.716 -8.032)" fill="#e5e5e5"/>
    <path id="패스_996" data-name="패스 996" d="M38.1,9.313a4.805,4.805,0,1,0,0,9.611Z" transform="translate(-28.716 -8.032)" fill="#f7f7f7"/>
    <path id="패스_997" data-name="패스 997" d="M60.575,37.7H59.8a.894.894,0,1,0,0,1.788h.778a.894.894,0,1,0,0-1.788" transform="translate(-50.801 -32.514)" fill="#5d5d5d"/>
    <path id="패스_998" data-name="패스 998" d="M60.185,37.7H59.8a.894.894,0,1,0,0,1.788h.389Z" transform="translate(-50.8 -32.514)" fill="#999"/>
  </g>
</svg>
