<svg id="ic_menu_cmt_trans" xmlns="http://www.w3.org/2000/svg" xmlns:xlink="http://www.w3.org/1999/xlink" viewBox="0 0 33.506 20.903">
  <defs>
    <clipPath id="clip-path">
      <rect id="사각형_208" data-name="사각형 208" width="33.506" height="20.903" fill="none"/>
    </clipPath>
  </defs>
  <g id="그룹_498" data-name="그룹 498" clip-path="url(#clip-path)">
    <path id="패스_961" data-name="패스 961" d="M159.615,75.661h-1.334a3.679,3.679,0,0,1-3.675-3.675V66.939a.982.982,0,1,1,1.963,0v5.047a1.714,1.714,0,0,0,1.712,1.712h1.333a.982.982,0,0,1,0,1.963" transform="translate(-131.324 -56.025)" fill="#797880"/>
    <path id="패스_962" data-name="패스 962" d="M185.82,109.5h-2.748a1.726,1.726,0,0,0-1.724,1.724v.964a1.726,1.726,0,0,0,1.724,1.724h2.748a1.726,1.726,0,0,0,1.725-1.724v-.964a1.726,1.726,0,0,0-1.725-1.724" transform="translate(-154.039 -93.014)" fill="#ffc140"/>
    <path id="패스_963" data-name="패스 963" d="M39.133,16.144V26.475a.982.982,0,0,1-.982.982H25.933a.982.982,0,0,1-.982-.982V16.144a.981.981,0,0,1,.982-.982H38.151a.982.982,0,0,1,.982.982" transform="translate(-21.194 -12.879)" fill="#8c8993"/>
    <path id="패스_964" data-name="패스 964" d="M79.13,16.144V26.475a.982.982,0,0,1-.982.982H72.039v-12.3h6.109a.982.982,0,0,1,.982.982" transform="translate(-61.191 -12.879)" fill="#797880"/>
    <path id="패스_965" data-name="패스 965" d="M136.371,32.975H131.04V39.9h5.331a3.465,3.465,0,1,0,0-6.93" transform="translate(-111.307 -28.009)" fill="#dadada"/>
    <path id="패스_966" data-name="패스 966" d="M3.4,0H2.323A2.325,2.325,0,0,0,0,2.323V14.539a2.325,2.325,0,0,0,2.323,2.323H3.4A2.325,2.325,0,0,0,5.72,14.539V2.323A2.325,2.325,0,0,0,3.4,0" fill="#797880"/>
    <path id="패스_967" data-name="패스 967" d="M109.488,0h-1.075a2.325,2.325,0,0,0-2.323,2.323V14.539a2.325,2.325,0,0,0,2.323,2.323h1.075a2.325,2.325,0,0,0,2.323-2.323V2.323A2.325,2.325,0,0,0,109.488,0" transform="translate(-90.114)" fill="#57545b"/>
  </g>
</svg>
