<svg id="ic_menu_cmt_knowhow" xmlns="http://www.w3.org/2000/svg" xmlns:xlink="http://www.w3.org/1999/xlink" viewBox="0 0 25.975 25.973">
  <defs>
    <clipPath id="clip-path">
      <rect id="사각형_209" data-name="사각형 209" width="25.975" height="25.973" fill="none"/>
    </clipPath>
  </defs>
  <g id="그룹_500" data-name="그룹 500" clip-path="url(#clip-path)">
    <path id="패스_968" data-name="패스 968" d="M196.472.225a.754.754,0,0,1-.021,1.076l-1.883,1.84a.786.786,0,0,1-1.033.021l-.043-.043a.754.754,0,0,1,.022-1.076L195.4.2a.784.784,0,0,1,1.076.021" transform="translate(-170.712 0)" fill="#c5c9f7"/>
    <path id="패스_969" data-name="패스 969" d="M198.427,1.926A.754.754,0,0,1,198.406,3l-1.883,1.84a.786.786,0,0,1-1.033.021Z" transform="translate(-172.667 -1.701)" fill="#a8aff1"/>
    <path id="패스_970" data-name="패스 970" d="M8.691,145.871l.032.032a.765.765,0,0,1-.032,1.044l-1.668,1.668a3.951,3.951,0,0,1-.484,4.891,3.74,3.74,0,0,1-2.7,1.108,3.906,3.906,0,0,1-2.648-1.178l-.032-.032a3.749,3.749,0,0,1-.039-5.381.754.754,0,0,1,1.076,0,.763.763,0,0,1,0,1.076,2.266,2.266,0,0,0-.678,1.6,2.213,2.213,0,0,0,.76,1.647,2.3,2.3,0,0,0,3.186.08,2.417,2.417,0,0,0,.032-3.3l-.032-.032a.754.754,0,0,1,0-1.076l2.152-2.152a.753.753,0,0,1,1.076,0" transform="translate(0 -128.642)" fill="#c5c9f7"/>
    <path id="패스_971" data-name="패스 971" d="M45.544,11.882a15.519,15.519,0,0,0-9.481,4.273c-1.969,1.969-3.369,5.327-4.262,8.05a5.6,5.6,0,0,0-3.982.753c-.151.043-.829.4-.979.463a.758.758,0,0,0,0,1.356l4.079,2.055.021.043L32.964,32.9a.754.754,0,0,0,1.356,0c.054-.118.355-.678.431-.882a.116.116,0,0,0,.022-.043,5.671,5.671,0,0,0,.764-4.036c2.723-.893,6.091-2.282,8.061-4.251a15.606,15.606,0,0,0,4.273-9.481,2.276,2.276,0,0,0-.635-1.625l-.032-.032a2.372,2.372,0,0,0-1.658-.667" transform="translate(-23.336 -10.495)" fill="#fe7858"/>
    <path id="패스_972" data-name="패스 972" d="M17.727,147.857A.765.765,0,0,1,17.7,148.9l-1.668,1.668a3.951,3.951,0,0,1-.484,4.891,3.739,3.739,0,0,1-2.7,1.108,3.906,3.906,0,0,1-2.648-1.178l1.087-1.087a2.3,2.3,0,0,0,3.186.08,2.417,2.417,0,0,0,.032-3.3Z" transform="translate(-9.004 -130.596)" fill="#a8aff1"/>
    <path id="패스_973" data-name="패스 973" d="M81.431,17.874a2.276,2.276,0,0,1,.635,1.625,15.6,15.6,0,0,1-4.273,9.482c-1.969,1.969-5.338,3.358-8.061,4.251a5.671,5.671,0,0,1-.764,4.036.116.116,0,0,1-.022.043c-.075.2-.377.764-.431.882a.754.754,0,0,1-1.356,0l-2.023-4.025Z" transform="translate(-57.533 -15.787)" fill="#fd4e26"/>
    <path id="패스_974" data-name="패스 974" d="M175.219,35.247l.032.032a.762.762,0,0,1-1.076,1.076l-.032-.032a.761.761,0,0,1,1.076-1.076" transform="translate(-153.613 -30.933)" fill="#994c10"/>
    <path id="패스_975" data-name="패스 975" d="M123.311,73.933a.751.751,0,0,1-.958.484l-1.916-.646-1.313-.431a.761.761,0,0,1-.474-.968.751.751,0,0,1,.958-.484l2.034.678,1.195.4a.761.761,0,0,1,.474.968" transform="translate(-104.762 -63.463)" fill="#994c10"/>
    <path id="패스_976" data-name="패스 976" d="M141.748,55.5a.751.751,0,0,1-.958.484l-1.916-.646-1.313-.431a.761.761,0,0,1-.474-.969.751.751,0,0,1,.958-.484l2.034.678,1.195.4a.761.761,0,0,1,.474.969" transform="translate(-121.046 -47.178)" fill="#994c10"/>
    <path id="패스_977" data-name="패스 977" d="M104.874,92.371a.751.751,0,0,1-.958.484L102,92.21l-1.313-.431a.761.761,0,0,1-.474-.968.751.751,0,0,1,.958-.484l2.034.678,1.195.4a.761.761,0,0,1,.474.969" transform="translate(-88.477 -79.748)" fill="#994c10"/>
    <path id="패스_978" data-name="패스 978" d="M118.24,96.816a.761.761,0,0,1,.474.969.751.751,0,0,1-.958.484l-1.916-.646,1.205-1.205Z" transform="translate(-102.316 -85.162)" fill="#713708"/>
    <path id="패스_979" data-name="패스 979" d="M136.677,78.378a.761.761,0,0,1,.473.968.751.751,0,0,1-.958.484l-1.916-.646,1.205-1.205Z" transform="translate(-118.601 -68.876)" fill="#713708"/>
    <path id="패스_980" data-name="패스 980" d="M155.114,59.94a.761.761,0,0,1,.474.968.751.751,0,0,1-.958.484l-1.916-.646,1.205-1.205Z" transform="translate(-134.886 -52.591)" fill="#713708"/>
    <path id="패스_981" data-name="패스 981" d="M176.129,38.31l1.076-1.076a.762.762,0,0,1-1.076,1.076" transform="translate(-155.567 -32.887)" fill="#713708"/>
  </g>
</svg>
