<svg width="24" height="24" viewBox="0 0 24 24" fill="none" xmlns="http://www.w3.org/2000/svg">
    <path d="M17.512 12.625c.029 3.027 2.673 4.034 2.703 4.047-.023.071-.423 1.435-1.394 2.845-.839 1.218-1.71 2.432-3.082 2.457-1.348.025-1.782-.794-3.323-.794s-2.023.769-3.299.819c-1.324.05-2.333-1.318-3.18-2.532-1.728-2.483-3.05-7.016-1.275-10.076.881-1.52 2.456-2.482 4.166-2.507 1.3-.025 2.528.869 3.323.869.795 0 2.286-1.075 3.855-.917.656.027 2.499.263 3.682 1.984-.095.059-2.199 1.275-2.176 3.805zm-2.534-7.432c.704-.845 1.177-2.022 1.048-3.193-1.014.04-2.24.67-2.966 1.516-.652.748-1.222 1.946-1.069 3.093 1.13.087 2.284-.57 2.987-1.416z" fill="#fff"/>
</svg>
