<svg width="25" height="24" viewBox="0 0 25 24" fill="none" xmlns="http://www.w3.org/2000/svg">
    <path fill-rule="evenodd" clip-rule="evenodd" d="M22.002 12.227c0-.709-.064-1.39-.182-2.045h-9.418v3.868h5.381a4.6 4.6 0 0 1-1.995 3.018v2.51h3.232c1.89-1.742 2.982-4.305 2.982-7.35z" fill="#4285F4"/>
    <path fill-rule="evenodd" clip-rule="evenodd" d="M12.402 22c2.7 0 4.963-.895 6.618-2.423l-3.232-2.509c-.896.6-2.041.955-3.386.955-2.605 0-4.81-1.76-5.596-4.123h-3.34v2.59A9.996 9.996 0 0 0 12.401 22z" fill="#34A853"/>
    <path fill-rule="evenodd" clip-rule="evenodd" d="M6.806 13.9c-.2-.6-.314-1.24-.314-1.9 0-.66.114-1.3.314-1.9V7.51h-3.34A9.996 9.996 0 0 0 2.401 12c0 1.614.386 3.14 1.063 4.49l3.341-2.59z" fill="#FBBC05"/>
    <path fill-rule="evenodd" clip-rule="evenodd" d="M12.402 5.977c1.468 0 2.786.505 3.822 1.496l2.869-2.868C17.36 2.99 15.097 2 12.402 2 8.492 2 5.11 4.24 3.465 7.51l3.341 2.59c.786-2.364 2.991-4.123 5.596-4.123z" fill="#EA4335"/>
</svg>
