<svg id="ic_small_like" xmlns="http://www.w3.org/2000/svg" xmlns:xlink="http://www.w3.org/1999/xlink" width="12" height="10" viewBox="0 0 12 10">
  <defs>
    <clipPath id="clip-path">
      <rect id="사각형_186" data-name="사각형 186" width="12" height="10" transform="translate(0 0)" fill="#7b7f93"/>
    </clipPath>
  </defs>
  <g id="그룹_461" data-name="그룹 461" transform="translate(0 0)" clip-path="url(#clip-path)">
    <path id="패스_954" data-name="패스 954" d="M6,10a1.444,1.444,0,0,1-1.066-.479L.79,5.016A3.126,3.126,0,0,1,.79.861a2.552,2.552,0,0,1,3.822,0L6,2.369,7.387.861a2.552,2.552,0,0,1,3.822,0,3.126,3.126,0,0,1,0,4.155l-4.144,4.5A1.444,1.444,0,0,1,6,10M2.7.8a1.874,1.874,0,0,0-1.388.625A2.217,2.217,0,0,0,.738,2.938a2.217,2.217,0,0,0,.575,1.509l4.143,4.5a.726.726,0,0,0,1.086,0l4.144-4.5a2.218,2.218,0,0,0,.575-1.509,2.217,2.217,0,0,0-.575-1.509,1.853,1.853,0,0,0-2.775,0L6.261,3.223a.359.359,0,0,1-.523,0L4.089,1.43A1.874,1.874,0,0,0,2.7.8" transform="translate(0 0)" fill="#7b7f93"/>
  </g>
</svg>
