<svg id="ic_small_fish" xmlns="http://www.w3.org/2000/svg" xmlns:xlink="http://www.w3.org/1999/xlink" width="13" height="10" viewBox="0 0 13 10">
  <defs>
    <clipPath id="clip-path">
      <rect id="사각형_219" data-name="사각형 219" width="13" height="10" fill="none" stroke="#7b7f93" stroke-width="1"/>
    </clipPath>
  </defs>
  <g id="그룹_529" data-name="그룹 529" clip-path="url(#clip-path)">
    <path id="패스_1037" data-name="패스 1037" d="M40.8,40.939a6.834,6.834,0,0,0,1.923-2.263,1.043,1.043,0,0,1,.058-.092c.276-.389.7-.347.942.092a7.717,7.717,0,0,0,1.084,1.515,6,6,0,0,0,.55.524q.037-.4.063-.8c.045-.687.069-1.41.069-2.162s-.024-1.475-.069-2.161q-.026-.4-.064-.8a5.928,5.928,0,0,0-.551.524,7.715,7.715,0,0,0-1.08,1.515.946.946,0,0,1-.06.1c-.277.389-.7.345-.945-.1A6.836,6.836,0,0,0,40.8,34.566a3.965,3.965,0,0,0-2.33-.794,4.157,4.157,0,0,0-2.794,1.167l-.033.033a8.009,8.009,0,0,0-1.874,2.781,8.039,8.039,0,0,0,1.873,2.783,4.171,4.171,0,0,0,2.828,1.2A3.964,3.964,0,0,0,40.8,40.939Z" transform="translate(-33.132 -32.753)" fill="none" stroke="#7b7f93" stroke-linecap="round" stroke-linejoin="round" stroke-width="1"/>
  </g>
</svg>
